<svg xmlns="http://www.w3.org/2000/svg" width="1846.028" height="712.729" viewBox="0 0 1846.028 712.729">
  <g id="drawn_circle_bg" data-name="drawn circle bg" transform="translate(-518.485 119.984)">
    <g id="Ellipse_1" data-name="Ellipse 1" transform="matrix(0.695, -0.719, 0.719, 0.695, -1188.844, 2624.842)" fill="none" opacity="0.797">
      <path d="M2855.878-62.457c-65.495-64.2-29.455-233.9,57.84-273.936,84.669-38.835,208.65-2.931,239.743,84.452,32.2,90.483,30.929,163.211-49.141,216.245S2924.461,4.774,2855.878-62.457Z" stroke="none"/>
      <path d="M 2997.071533203125 -42.77878189086914 C 3026.840576171875 -42.77878189086914 3056.288330078125 -51.86100387573242 3082.232666015625 -69.04434204101562 C 3137.598388671875 -105.7165603637695 3146.689453125 -151.6532287597656 3115.776123046875 -238.5321197509766 C 3100.3916015625 -281.7665710449219 3048.1181640625 -311.9621276855469 2988.6572265625 -311.9621276855469 C 2967.553955078125 -311.9621276855469 2947.406005859375 -307.8376770019531 2930.39501953125 -300.0354614257812 C 2900.175048828125 -286.1743469238281 2873.982666015625 -243.1054534912109 2865.219482421875 -192.8654479980469 C 2857.658203125 -149.5210113525391 2864.982666015625 -109.5443420410156 2883.87939453125 -91.02100372314453 C 2915.614990234375 -59.91211700439453 2955.81494140625 -42.77878189086914 2997.071533203125 -42.77878189086914 M 2997.07177734375 -2.778296947479248 C 2946.12890625 -2.778296947479248 2895.7373046875 -23.38404846191406 2855.878173828125 -62.45656204223633 C 2790.3837890625 -126.6587829589844 2826.423828125 -296.3532409667969 2913.71826171875 -336.3932189941406 C 2936.683837890625 -346.9266967773438 2962.545654296875 -351.9620971679688 2988.65771484375 -351.9620971679688 C 3058.814453125 -351.9620971679688 3130.802001953125 -315.6227722167969 3153.461669921875 -251.9421234130859 C 3185.6572265625 -161.4587860107422 3184.390625 -88.73100280761719 3104.320556640625 -35.69655990600586 C 3070.785888671875 -13.4849681854248 3033.78369140625 -2.778296947479248 2997.07177734375 -2.778296947479248 Z" stroke="none" fill="#8864ff"/>
    </g>
    <g id="Ellipse_1_copy" data-name="Ellipse 1 copy" transform="translate(4997.129 -394.402) rotate(178)" fill="none" opacity="0.726">
      <path d="M2689.055-238.468c-50.414-62.675-62.778-184.567,46.991-237.252,73.773-35.409,151.707-50.627,226.137,51.66,48.528,66.692,22.08,190.955-64.507,224.765C2823.387-170.286,2740.779-174.166,2689.055-238.468Z" stroke="none"/>
      <path d="M 2811.4365234375 -211.9832000732422 C 2835.15576171875 -211.9832000732422 2861.2041015625 -217.259033203125 2886.764892578125 -227.2398681640625 C 2916.578125 -238.8815307617188 2939.7783203125 -266.4023742675781 2950.41650390625 -302.7465209960938 C 2961.55322265625 -340.7940368652344 2956.767333984375 -380.5148620605469 2937.926513671875 -406.408203125 C 2894.845703125 -465.6131896972656 2857.4140625 -472.460693359375 2833.006591796875 -472.460693359375 C 2809.52490234375 -472.460693359375 2782.83984375 -464.9023742675781 2749.02734375 -448.6740417480469 C 2713.96240234375 -431.8440246582031 2692.31494140625 -406.2515258789062 2684.687255859375 -372.6073608398438 C 2676.134765625 -334.884033203125 2687.283935546875 -288.5340270996094 2712.431640625 -257.2706909179688 C 2736.60400390625 -227.2198638916016 2769.9140625 -211.9832000732422 2811.4365234375 -211.9832000732422 M 2811.436279296875 -181.9831085205078 C 2765.002685546875 -181.9831085205078 2721.101806640625 -198.6281127929688 2689.0556640625 -238.4673614501953 C 2638.6416015625 -301.1423645019531 2626.27734375 -423.0348510742188 2736.046630859375 -475.7198486328125 C 2767.795654296875 -490.95849609375 2800.3271484375 -502.4602966308594 2833.006591796875 -502.4602966308594 C 2876.26220703125 -502.4602966308594 2919.78564453125 -482.3262023925781 2962.18408203125 -424.0590209960938 C 3010.71240234375 -357.3665161132812 2984.26416015625 -233.1048583984375 2897.676513671875 -199.2948608398438 C 2869.41455078125 -188.2591552734375 2839.94775390625 -181.9831085205078 2811.436279296875 -181.9831085205078 Z" stroke="none" fill="#fff3b1"/>
    </g>
  </g>
</svg>
