<svg xmlns="http://www.w3.org/2000/svg" width="1827.902" height="436.205" viewBox="0 0 1827.902 436.205">
  <g id="drawn_cricle_BG" data-name="drawn cricle BG" transform="translate(133.261 -1775.667)" opacity="0.764">
    <g id="Ellipse_1_copy" data-name="Ellipse 1 copy" transform="translate(-2785.028 2278.127)" fill="none" opacity="0.707">
      <path d="M2689.46-232.624c-50.96-64.062-63.459-188.653,47.5-242.5,74.573-36.193,153.352-51.748,228.589,52.8,49.055,68.169,22.32,195.181-65.206,229.74C2825.247-162.933,2741.744-166.9,2689.46-232.624Z" stroke="none"/>
      <path d="M 2813.168212890625 -214.8889007568359 C 2835.900390625 -214.8889007568359 2860.96484375 -220.0411224365234 2885.65283203125 -229.7877807617188 C 2912.84716796875 -240.5255584716797 2934.1826171875 -266.2388916015625 2944.189453125 -300.3344421386719 C 2954.724853515625 -336.2300109863281 2950.364990234375 -374.9422302246094 2933.08056640625 -398.9599914550781 C 2892.122802734375 -455.8777770996094 2857.47265625 -462.4599914550781 2834.9716796875 -462.4599914550781 C 2812.79833984375 -462.4599914550781 2787.203857421875 -455.0500183105469 2754.423828125 -439.1422424316406 C 2721.83154296875 -423.3233337402344 2701.692626953125 -399.4100036621094 2694.5693359375 -368.064453125 C 2685.091552734375 -326.3655700683594 2700.89599609375 -282.5011291503906 2720.763916015625 -257.5255737304688 C 2743.269287109375 -229.2344512939453 2774.359375 -214.8889007568359 2813.168212890625 -214.8889007568359 M 2813.168212890625 -174.888916015625 C 2766.226318359375 -174.888916015625 2721.856689453125 -191.8990020751953 2689.46044921875 -232.6244506835938 C 2638.49951171875 -296.685546875 2626.001708984375 -421.2766723632812 2736.95947265625 -475.1277770996094 C 2769.052734375 -490.7034301757812 2801.9375 -502.4599609375 2834.97119140625 -502.4599609375 C 2878.69580078125 -502.4599609375 2922.6904296875 -481.8805847167969 2965.54833984375 -422.3233337402344 C 3014.603759765625 -354.1555480957031 2987.868408203125 -227.1422271728516 2900.3427734375 -192.5833435058594 C 2871.778564453125 -181.3053283691406 2841.984619140625 -174.888916015625 2813.168212890625 -174.888916015625 Z" stroke="none" fill="#ffe269"/>
    </g>
    <g id="Ellipse_1_copy_2" data-name="Ellipse 1 copy 2" transform="translate(1311.668 -290.784)" fill="none">
      <path d="M350.8,2460.866c-44.615,62.54-192.857,52.284-239.258-13.419-45-63.725-32.719-170.077,36.42-207.766,71.591-39.025,133.069-48.212,189.374,9.76S397.516,2395.376,350.8,2460.866Z" stroke="none"/>
      <path d="M 245.1422271728516 2462.65576171875 C 278.7011108398438 2462.65576171875 307.39111328125 2452.834716796875 318.2333374023438 2437.6357421875 C 354.6666564941406 2386.565673828125 350.7210998535156 2320.636962890625 308.6388854980469 2277.310302734375 C 283.2866821289062 2251.205810546875 261.9466552734375 2248.186767578125 248.1000061035156 2248.186767578125 C 226.4522247314453 2248.186767578125 199.9577789306641 2256.892333984375 167.1044464111328 2274.802490234375 C 141.3633422851562 2288.83349609375 131.6577758789062 2316.14794921875 128.163330078125 2331.18017578125 C 120.5611114501953 2363.88232421875 126.7111129760742 2399.59130859375 144.2122192382812 2424.37353515625 C 160.1311187744141 2446.91357421875 201.6344451904297 2462.65576171875 245.1422271728516 2462.65576171875 M 245.1423492431641 2502.65625 C 192.5394897460938 2502.65625 136.8691864013672 2483.314697265625 111.5388946533203 2447.447998046875 C 66.53444671630859 2383.722412109375 78.82111358642578 2277.3701171875 147.9588928222656 2239.681396484375 C 183.6452026367188 2220.22802734375 216.8272399902344 2208.187255859375 248.099853515625 2208.187255859375 C 279.5639038085938 2208.187255859375 309.09521484375 2220.3671875 337.3333435058594 2249.44140625 C 393.6377868652344 2307.412353515625 397.5166625976562 2395.375732421875 350.7966613769531 2460.86572265625 C 330.5371704101562 2489.265869140625 288.8996276855469 2502.65625 245.1423492431641 2502.65625 Z" stroke="none" fill="#f16bca"/>
    </g>
  </g>
</svg>
