<svg xmlns="http://www.w3.org/2000/svg" width="131.34" height="112.522" viewBox="0 0 131.34 112.522">
  <path id="Union_121" data-name="Union 121" d="M109.307,129.595l1.607-1.746,1.607,1.746-1.607,1.745Zm-21.99,0,1.607-1.746,1.607,1.746-1.607,1.745Zm-21.99,0,1.607-1.746,1.607,1.746-1.607,1.745Zm-21.99,0,1.607-1.746,1.607,1.746-1.607,1.745Zm-21.99,0,1.607-1.746,1.607,1.746-1.607,1.745ZM0,129.595l1.607-1.746,1.608,1.746L1.607,131.34Zm109.307-18.253,1.607-1.746,1.607,1.746-1.607,1.746Zm-21.99,0,1.607-1.746,1.607,1.746-1.607,1.746Zm-21.99,0,1.607-1.746,1.607,1.746-1.607,1.746Zm-21.99,0,1.607-1.746,1.607,1.746-1.607,1.746Zm-21.99,0,1.607-1.746,1.607,1.746-1.607,1.746ZM0,111.342,1.607,109.6l1.608,1.746-1.608,1.746ZM109.307,93.089l1.607-1.746,1.607,1.746-1.607,1.745Zm-21.99,0,1.607-1.746,1.607,1.746-1.607,1.745Zm-21.99,0,1.607-1.746,1.607,1.746-1.607,1.745Zm-21.99,0,1.607-1.746,1.607,1.746-1.607,1.745Zm-21.99,0,1.607-1.746,1.607,1.746-1.607,1.745ZM0,93.089l1.607-1.746,1.608,1.746L1.607,94.834ZM109.308,74.757l1.607-1.746,1.607,1.746L110.914,76.5Zm-21.991,0,1.607-1.746,1.607,1.746L88.925,76.5Zm-21.99,0,1.607-1.746,1.607,1.746L66.935,76.5Zm-21.99,0,1.607-1.746,1.607,1.746L44.945,76.5Zm-21.99,0,1.607-1.746,1.607,1.746L22.955,76.5ZM0,74.757l1.607-1.746,1.607,1.746L1.607,76.5ZM109.308,56.5l1.607-1.746,1.607,1.746-1.607,1.745Zm-21.991,0,1.607-1.746L90.532,56.5l-1.607,1.745Zm-21.99,0,1.607-1.746L68.542,56.5l-1.607,1.745Zm-21.99,0,1.607-1.746L46.552,56.5l-1.607,1.745Zm-21.99,0,1.607-1.746L24.562,56.5l-1.607,1.745ZM0,56.5l1.607-1.746L3.215,56.5,1.607,58.249ZM109.308,38.252l1.607-1.746,1.607,1.746L110.914,40Zm-21.991,0,1.607-1.746,1.607,1.746L88.925,40Zm-21.99,0,1.607-1.746,1.607,1.746L66.935,40Zm-21.99,0,1.607-1.746,1.607,1.746L44.945,40Zm-21.99,0,1.607-1.746,1.607,1.746L22.955,40ZM0,38.252l1.607-1.746,1.607,1.746L1.607,40ZM109.308,20l1.607-1.746L112.522,20l-1.607,1.745ZM87.317,20l1.607-1.746L90.532,20l-1.607,1.745Zm-21.99,0,1.607-1.746L68.542,20l-1.607,1.745Zm-21.99,0,1.607-1.746L46.552,20l-1.607,1.745Zm-21.99,0,1.607-1.746L24.562,20l-1.607,1.745ZM0,20l1.607-1.746L3.215,20,1.607,21.744ZM109.308,1.746,110.914,0l1.607,1.746L110.914,3.49Zm-21.991,0L88.925,0l1.607,1.746L88.925,3.49Zm-21.99,0L66.935,0l1.607,1.746L66.935,3.49Zm-21.99,0L44.945,0l1.607,1.746L44.945,3.49Zm-21.99,0L22.955,0l1.607,1.746L22.955,3.49ZM0,1.746,1.607,0,3.215,1.746,1.607,3.49Z" transform="translate(131.34) rotate(90)" fill="rgba(51,51,51,0.65)"/>
</svg>
