<svg xmlns="http://www.w3.org/2000/svg" width="30" height="28.235" viewBox="0 0 30 28.235">
    <path id="Vector_2_" data-name="Vector (2)" d="M29.151,4.186,25.815.849A2.9,2.9,0,0,0,21.851.725L6.1,14.438a1.933,1.933,0,0,0-.57,2.012l.689,2.262L4.2,20.728a.953.953,0,0,0,0,1.347l.014.014L0,26.469l5.508,1.766,2.426-2.427h0a.953.953,0,0,0,1.348,0L11.294,23.8l2.256.691a1.936,1.936,0,0,0,2.014-.569L29.275,8.153A2.9,2.9,0,0,0,29.151,4.186ZM5.021,26.225l-1.776-.57,2.22-2.318,1.221,1.222Zm9.218-3.474a.156.156,0,0,1-.128.052l-.046,0L11.81,22.11,10.8,21.8,8.609,23.987,6.025,21.4l2.19-2.191L7.906,18.2l-.689-2.262a.164.164,0,0,1,.04-.165l2.48-2.159L16.4,20.273Zm13.7-15.757L17.557,18.938l-6.485-6.489,11.947-10.4a1.139,1.139,0,0,1,1.55.049L27.9,5.435A1.138,1.138,0,0,1,27.944,6.994Z" fill="#fff"/>
  </svg>
  