<svg xmlns="http://www.w3.org/2000/svg" width="580.561" height="219.684" viewBox="0 0 580.561 219.684">
  <g id="Group_156" data-name="Group 156" transform="matrix(0.485, -0.875, 0.875, 0.485, -931.569, 1589.706)" opacity="0.417">
    <g id="Component_9_70" data-name="Component 9 – 70" transform="translate(2025.683 496.781) rotate(30)">
      <path id="Path_466" data-name="Path 466" d="M1152.492,219.633a22.454,22.454,0,0,1-1.6,3.192c-1.246,2.181-3.385,5.531-3.385,5.531" transform="translate(-1102.903 386.038) rotate(-30)" fill="none" stroke="#000" stroke-linecap="round" stroke-width="2"/>
      <path id="Path_467" data-name="Path 467" d="M1152.492,219.633s-1.912,2.753-3.158,4.934a26.923,26.923,0,0,0-1.826,3.788" transform="translate(-375.992 -1102.903) rotate(60)" fill="none" stroke="#000" stroke-linecap="round" stroke-width="2"/>
    </g>
    <g id="Component_10_47" data-name="Component 10 – 47" transform="translate(2099.448 546.297)">
      <g id="Path_469" data-name="Path 469" transform="translate(0 0)" fill="none">
        <path d="M6.163,0c4-.062,6.163,3.909,6.163,6.163S11.3,9.87,8.984,11.105s-5.145,1.3-6.686-.24A6.542,6.542,0,0,1,0,6.163,6.163,6.163,0,0,1,6.163,0Z" stroke="none"/>
        <path d="M 6.25579833984375 1.999529838562012 C 6.235278129577637 1.999529838562012 6.214398384094238 1.999699592590332 6.193728446960449 2.000020027160645 L 6.178238391876221 2.000259399414062 L 6.162748336791992 2.000259399414062 C 3.912229537963867 2.000259399414062 2.073101997375488 3.795572280883789 2.002120018005371 6.029152870178223 C 2.286447525024414 7.906310558319092 2.523975372314453 8.262516975402832 3.712287902832031 9.45082950592041 C 4.08405876159668 9.822599411010742 4.706628322601318 10.02733993530273 5.465298175811768 10.02733993530273 C 6.298908233642578 10.02733993530273 7.213638305664062 9.783779144287109 8.041007995605469 9.341519355773926 C 8.926717758178711 8.868080139160156 9.525108337402344 8.392399787902832 9.870388031005859 7.887299537658691 C 10.18513870239258 7.42686939239502 10.32549858093262 6.895069599151611 10.32549858093262 6.162999629974365 C 10.32549858093262 5.540319442749023 9.978048324584961 4.442679405212402 9.215208053588867 3.504169464111328 C 8.657278060913086 2.81775951385498 7.690948486328125 1.999529838562012 6.25579833984375 1.999529838562012 M 6.255798816680908 -0.000469207763671875 C 10.19324207305908 -0.000469207763671875 12.32549858093262 3.926778793334961 12.32549858093262 6.162999629974365 C 12.32549858093262 8.416699409484863 11.29535865783691 9.869759559631348 8.983828544616699 11.10534954071045 C 7.864745140075684 11.70353698730469 6.623138904571533 12.02734184265137 5.465293407440186 12.02734184265137 C 4.23154354095459 12.02734184265137 3.092872619628906 11.65983390808105 2.298078536987305 10.86503982543945 C 0.7573881149291992 9.324359893798828 0.3561582565307617 8.591999053955078 -1.9073486328125e-06 6.162999629974365 C -1.9073486328125e-06 2.75940990447998 2.759158134460449 0.0002593994140625 6.162748336791992 0.0002593994140625 C 6.193727970123291 -0.000225067138671875 6.225039482116699 -0.000469207763671875 6.255798816680908 -0.000469207763671875 Z" stroke="none" fill="#282828"/>
      </g>
    </g>
    <g id="Component_12_386" data-name="Component 12 – 386" transform="translate(2082.531 512.09)">
      <circle id="Ellipse_121" data-name="Ellipse 121" cx="0.5" cy="0.5" r="0.5" fill="#282828"/>
    </g>
    <g id="Component_12_387" data-name="Component 12 – 387" transform="translate(2070.147 560.297)">
      <circle id="Ellipse_121-2" data-name="Ellipse 121" cx="1" cy="1" r="1" fill="#282828"/>
    </g>
    <g id="Component_12_388" data-name="Component 12 – 388" transform="translate(2099.448 512.082)">
      <circle id="Ellipse_121-3" data-name="Ellipse 121" cx="1" cy="1" r="1" fill="#282828"/>
    </g>
  </g>
  <g id="Group_157" data-name="Group 157" transform="translate(342.459 -1123.039) rotate(49)" opacity="0.435">
    <g id="Component_11_144" data-name="Component 11 – 144" transform="translate(1157 707)">
      <path id="Path_470" data-name="Path 470" d="M2,0A2.164,2.164,0,0,1,4,2,2.161,2.161,0,0,1,2.725,3.8a1.619,1.619,0,0,1-1.95-.127A1.7,1.7,0,0,1,0,2,1.745,1.745,0,0,1,.513.733,2.044,2.044,0,0,1,2,0Z" fill="#282828"/>
    </g>
    <g id="Component_12_389" data-name="Component 12 – 389" transform="translate(1113 719)" opacity="0.098">
      <circle id="Ellipse_121-4" data-name="Ellipse 121" cx="1" cy="1" r="1" fill="#282828"/>
    </g>
    <g id="Component_12_390" data-name="Component 12 – 390" transform="translate(1123 702)" opacity="0.098">
      <circle id="Ellipse_121-5" data-name="Ellipse 121" cx="1" cy="1" r="1" fill="#282828"/>
    </g>
    <g id="Component_12_391" data-name="Component 12 – 391" transform="translate(1141 700)" opacity="0.299">
      <circle id="Ellipse_121-6" data-name="Ellipse 121" cx="0.5" cy="0.5" r="0.5" fill="#282828"/>
    </g>
  </g>
  <g id="Group_158" data-name="Group 158" transform="translate(-462.148 1198.183) rotate(-103)" opacity="0.437">
    <g id="Component_9_71" data-name="Component 9 – 71" transform="translate(1029.676 795.596) rotate(30)">
      <path id="Path_466-2" data-name="Path 466" d="M1152.492,219.633a22.454,22.454,0,0,1-1.6,3.192c-1.246,2.181-3.385,5.531-3.385,5.531" transform="translate(-1102.903 386.038) rotate(-30)" fill="none" stroke="#282828" stroke-linecap="round" stroke-width="2"/>
      <path id="Path_467-2" data-name="Path 467" d="M1152.492,219.633s-1.912,2.753-3.158,4.934a26.923,26.923,0,0,0-1.826,3.788" transform="translate(-375.992 -1102.903) rotate(60)" fill="none" stroke="#282828" stroke-linecap="round" stroke-width="2"/>
    </g>
    <g id="Component_11_145" data-name="Component 11 – 145" transform="matrix(0.259, -0.966, 0.966, 0.259, 931.33, 728.167)">
      <path id="Path_470-2" data-name="Path 470" d="M2,0A2.164,2.164,0,0,1,4,2,2.161,2.161,0,0,1,2.725,3.8a1.619,1.619,0,0,1-1.95-.127A1.7,1.7,0,0,1,0,2,1.745,1.745,0,0,1,.513.733,2.044,2.044,0,0,1,2,0Z" fill="#282828"/>
    </g>
    <g id="Component_12_392" data-name="Component 12 – 392" transform="translate(965.982 742.273)">
      <circle id="Ellipse_121-7" data-name="Ellipse 121" cx="0.738" cy="0.738" r="0.738" fill="#282828"/>
    </g>
    <g id="Component_12_393" data-name="Component 12 – 393" transform="translate(965.982 698)">
      <circle id="Ellipse_121-8" data-name="Ellipse 121" cx="1.476" cy="1.476" r="1.476" fill="#282828"/>
    </g>
    <g id="Component_12_394" data-name="Component 12 – 394" transform="translate(904 727.515)">
      <circle id="Ellipse_121-9" data-name="Ellipse 121" cx="0.738" cy="0.738" r="0.738" fill="#282828"/>
    </g>
  </g>
</svg>
