<?xml version="1.0" encoding="UTF-8"?>
<svg width="534px" height="529px" viewBox="0 0 534 529" version="1.1" xmlns="http://www.w3.org/2000/svg" xmlns:xlink="http://www.w3.org/1999/xlink">
    <!-- Generator: Sketch 52.6 (67491) - http://www.bohemiancoding.com/sketch -->
    <title>pinkgreen</title>
    <desc>Created with Sketch.</desc>
    <g id="Page-1" stroke="none" stroke-width="1" fill="none" fill-rule="evenodd">
        <g id="pinkgreen" transform="translate(-142.000000, 0.000000)">
            <g id="Ellipse_1_copy_2" transform="translate(22.234000, 0.813000)">
                <path d="M582.48,559.961 C484.88,701.113 160.571,688.479 59.062,540.19 C-39.393,396.364 -12.516,156.332 138.737,71.268 C295.355,-16.81 429.85,-37.543 553.026,93.295 C676.202,224.133 684.686,412.152 582.48,559.961 Z" id="Path"></path>
                <path d="M339.985626,618.956299 C434.402283,618.956299 514.714478,587.632812 549.580078,537.210693 C642.390076,402.990723 632.071167,235.613037 523.901184,120.714111 C472.180054,65.7751465 419.40451,40.1875 357.813385,40.1875 C301.728943,40.1875 238.346741,61.1418457 158.344513,106.132812 C105.035614,136.113037 66.47229,192.099609 49.7567291,263.779541 C29.1556168,352.118408 45.3689575,449.375244 92.0700684,517.596191 C134.218948,579.169678 231.532288,618.956299 339.985626,618.956299 Z M339.985199,658.955811 C228.338409,658.955811 112.654312,618.480469 59.0622864,540.190674 C-39.3932724,396.364014 -12.5154953,156.331787 138.736725,71.2685547 C216.806641,27.3640137 289.3992,0.187744141 357.813232,0.187744141 C426.646088,0.187744141 491.249329,27.6765137 553.025635,93.295166 C676.202271,224.135254 684.686707,412.151855 582.480042,559.960693 C536.407349,626.591064 439.809021,658.955811 339.985199,658.955811 Z" id="Shape" fill="#FF62CC" fill-rule="nonzero"></path>
            </g>
            <g id="Ellipse_1_copy_3" transform="translate(0.796000, 253.190000)">
                <path d="M361.986,342.715 C294.586,417.255 145.356,458.061 56.459,335.756 C-3.288,253.556 -38.763,162.03 72.893,49.918 C145.693,-23.182 306.105,-17.303 366.576,80.812 C418.458,164.991 431.132,266.239 361.986,342.715 Z" id="Path"></path>
                <path d="M202.969704,373.588623 C249.851929,373.588623 300.623047,350.939697 332.315262,315.888672 C403.24527,237.439697 356.089706,140.035156 332.523041,101.798584 C309.188599,63.9375 260.696365,40.4174805 205.970818,40.4174805 C163.91526,40.4174805 124.761929,54.520752 101.235262,78.1452637 C13.3474808,166.390869 31.3241501,233.140869 88.8141518,312.238525 C118.404151,352.94751 156.811928,373.588623 202.969704,373.588623 Z M202.970253,413.588135 C150.580381,413.588135 97.1907501,391.795166 56.4585953,335.756348 C-3.28807068,253.555176 -38.7636261,162.030762 72.8930397,49.9187012 C105.365109,17.3127441 155.280693,0.417480469 205.97052,0.417480469 C268.923569,0.417480469 333.077591,26.4609375 366.575256,80.8120117 C418.457489,164.990723 431.131927,266.238525 361.986374,342.715332 C325.470245,383.101807 264.921082,413.588135 202.970253,413.588135 Z" id="Shape" fill="#33FEC1" fill-rule="nonzero"></path>
            </g>
        </g>
    </g>
</svg>