<?xml version="1.0" encoding="UTF-8"?>
<svg width="1517px" height="734px" viewBox="0 0 1517 734" version="1.1" xmlns="http://www.w3.org/2000/svg" xmlns:xlink="http://www.w3.org/1999/xlink">
    <!-- Generator: Sketch 52.6 (67491) - http://www.bohemiancoding.com/sketch -->
    <title>Group</title>
    <desc>Created with Sketch.</desc>
    <g id="Page-1" stroke="none" stroke-width="1" fill="none" fill-rule="evenodd">
        <g id="Group" transform="translate(-113.000000, -119.000000)">
            <polygon id="Rectangle" fill="#F7F8FA" points="115 4 1646 4 1629.72484 614.971828 115 667.885945"></polygon>
            <g id="bgwhite" fill="#FFFFFF" stroke="#EBEBEB">
                <g id="bg_swirl_SVG" transform="translate(930.068356, 546.231223) rotate(166.000000) translate(-930.068356, -546.231223) translate(57.568356, 201.231223)">
                    <path d="M1700.65114,356.693 C1784.7787,420.465 1723.85386,464.544 1720.68379,517.47 C1717.34335,573.781 1784.8843,650.116 1681.63068,675.887 C1576.39253,702.161 1378.00375,686.847 1193.27559,649.132 C1024.65285,614.714 920.125025,534.644 757.668093,487.276 C560.495741,429.776 315.824054,421.976 161.28235,348.224 C6.10404015,274.173 -27.091099,188.71 20.746962,135.623 C66.0804438,85.315 279.267558,102.741 402.537887,80.501 C527.301598,57.992 556.003638,-17.256 745.812686,4.806 C935.333818,26.834 1104.23949,118.06 1278.64648,182.333 C1432.09031,238.883 1615.18262,291.887 1700.65114,356.693 Z" id="Path_1167"></path>
                    <path d="M1596.50189,354.94 C1669.5033,410.04 1616.61424,448.126 1613.87454,493.854 C1610.95552,542.513 1669.59296,608.464 1579.96509,630.734 C1488.6396,653.434 1316.44231,640.198 1156.09544,607.618 C1009.74592,577.875 919.019184,508.694 778.012569,467.767 C606.880269,418.089 394.512075,411.342 260.375618,347.625 C125.690226,283.649 96.8756103,209.805 138.397429,163.933 C177.74941,120.467 362.778438,135.523 469.776972,116.306 C578.069638,96.856 602.975955,31.84 767.723271,50.906 C932.219532,69.939 1078.8211,148.76 1230.19871,204.294 C1363.37876,253.149 1522.30497,298.949 1596.50189,354.94 Z" id="Path_1168"></path>
                </g>
            </g>
        </g>
    </g>
</svg>