<svg xmlns="http://www.w3.org/2000/svg" width="734.872" height="719.222" viewBox="0 0 734.872 719.222">
  <g id="hand_drawn_cirlce_PINK_GREEN" data-name="hand drawn cirlce PINK &amp; GREEN" transform="translate(74.736 177.457)">
    <g id="Ellipse_1_copy_2" data-name="Ellipse 1 copy 2" transform="translate(-76.734 -2385.644)" fill="none">
      <path d="M666.48,2767.961c-97.6,141.152-421.909,128.518-523.418-19.771-98.455-143.826-71.578-383.858,79.675-468.922,156.618-88.078,291.113-108.811,414.289,22.027S768.686,2620.152,666.48,2767.961Z" stroke="none"/>
      <path d="M 423.9856262207031 2826.956298828125 C 518.4022827148438 2826.956298828125 598.7144775390625 2795.6328125 633.580078125 2745.210693359375 C 726.3900756835938 2610.99072265625 716.0711669921875 2443.613037109375 607.9011840820312 2328.714111328125 C 556.1800537109375 2273.775146484375 503.4045104980469 2248.1875 441.8133850097656 2248.1875 C 385.7289428710938 2248.1875 322.3467407226562 2269.141845703125 242.3445129394531 2314.1328125 C 189.0356140136719 2344.113037109375 150.4722900390625 2400.099609375 133.7567291259766 2471.779541015625 C 113.1556167602539 2560.118408203125 129.3689575195312 2657.375244140625 176.070068359375 2725.59619140625 C 218.2189483642578 2787.169677734375 315.5322875976562 2826.956298828125 423.9856262207031 2826.956298828125 M 423.9851989746094 2866.955810546875 C 312.3384094238281 2866.955810546875 196.6543121337891 2826.48046875 143.0622863769531 2748.190673828125 C 44.60672760009766 2604.364013671875 71.48450469970703 2364.331787109375 222.7367248535156 2279.2685546875 C 300.806640625 2235.364013671875 373.3992004394531 2208.187744140625 441.813232421875 2208.187744140625 C 510.6460876464844 2208.187744140625 575.2493286132812 2235.676513671875 637.025634765625 2301.295166015625 C 760.2022705078125 2432.13525390625 768.6867065429688 2620.15185546875 666.4800415039062 2767.960693359375 C 620.4073486328125 2834.591064453125 523.8090209960938 2866.955810546875 423.9851989746094 2866.955810546875 Z" stroke="none" fill="#f2f2f5"/>
    </g>
    <g id="Ellipse_1_copy_3" data-name="Ellipse 1 copy 3" transform="translate(46.06 -2595.577)" fill="none">
      <path d="M276.668,3059.822c-74.044,81.531-238,126.165-335.661-7.612-65.64-89.912-104.614-190.021,18.055-312.649,79.981-79.956,256.214-73.526,322.648,33.792C338.71,2865.428,352.634,2976.173,276.668,3059.822Z" stroke="none"/>
      <path d="M 101.9692001342773 3097.342529296875 C 154.5714263916016 3097.342529296875 211.5214233398438 3072.059326171875 247.0558624267578 3032.931396484375 C 326.6514282226562 2945.28466796875 274.0214233398438 2836.927001953125 247.7003021240234 2794.406982421875 C 221.3558654785156 2751.8525390625 166.7791900634766 2725.4169921875 105.2658615112305 2725.4169921875 C 58.00475311279297 2725.4169921875 13.92141914367676 2741.2802734375 -12.65746974945068 2767.850341796875 C -111.0585784912109 2866.218017578125 -90.97858428955078 2940.559326171875 -26.68635940551758 3028.624755859375 C 6.603641510009766 3074.22265625 49.88919830322266 3097.342529296875 101.9692001342773 3097.342529296875 M 101.9689559936523 3137.3427734375 C 44.41196060180664 3137.3427734375 -14.24355506896973 3113.505615234375 -58.99302673339844 3052.21044921875 C -124.6330261230469 2962.29931640625 -163.6063537597656 2862.189208984375 -40.93746948242188 2739.5615234375 C -5.262301445007324 2703.897216796875 49.57655715942383 2685.4169921875 105.265739440918 2685.4169921875 C 174.4276275634766 2685.4169921875 244.9086151123047 2713.9033203125 281.7102966308594 2773.3525390625 C 338.7102966308594 2865.42822265625 352.6336364746094 2976.172607421875 276.6680908203125 3059.822509765625 C 236.5507354736328 3103.996826171875 170.0298919677734 3137.3427734375 101.9689559936523 3137.3427734375 Z" stroke="none" fill="rgba(150,156,170,0.06)"/>
    </g>
  </g>
</svg>
