
<svg width="3741px" height="1089px" viewBox="0 0 3741 1089" version="1.1" xmlns="http://www.w3.org/2000/svg" xmlns:xlink="http://www.w3.org/1999/xlink">
    <g id="Page-1" stroke="none" stroke-width="1" fill="none" fill-rule="evenodd">
        <g id="bg_swirl_SVG" transform="translate(1893.201988, 453.067156) rotate(166.000000) translate(-1893.201988, -453.067156) translate(76.201988, -260.932844)" fill="#FFFFFF" stroke="#EBEBEB">
            <path d="M3541.03313,737.939753 C3716.23802,870.169174 3589.35535,961.565722 3582.75332,1071.30627 C3575.7965,1188.06552 3716.45795,1346.34397 3501.42094,1399.7794 C3282.25091,1454.25779 2869.08447,1422.50465 2484.36777,1344.30367 C2133.19238,1272.93893 1915.50169,1106.91607 1577.16728,1008.69988 C1166.53418,889.475267 656.978492,873.30219 335.128406,720.379523 C11.952518,566.836889 -57.1800084,389.631798 42.4480124,279.557419 C136.859972,175.245217 580.845572,211.377531 837.569582,165.263526 C1097.40373,118.591757 1157.17888,-37.4328232 1552.47709,8.31210395 C1947.17568,53.9865331 2298.94031,243.14104 2662.16203,376.40927 C2981.72568,493.664081 3363.03555,603.566362 3541.03313,737.939753 Z" id="Path_1167"></path>
            <path d="M3324.64843,734.243131 C3476.7159,848.495422 3366.54397,927.468431 3360.83698,1022.28747 C3354.75644,1123.18406 3476.90267,1259.93638 3290.20102,1306.11421 C3099.96312,1353.18367 2741.26312,1325.73823 2407.24845,1258.18216 C2102.39132,1196.50873 1913.40065,1053.05886 1619.67319,968.194915 C1263.19165,865.185381 820.812621,851.195177 541.396223,719.075154 C260.836352,586.418083 200.813325,433.299277 287.306418,338.181652 C369.279574,248.052975 754.709053,279.272258 977.595101,239.424957 C1203.17693,199.094521 1255.05867,64.2809635 1598.23981,103.815159 C1940.89797,143.280928 2246.28015,306.719765 2561.61116,421.871974 C2839.0353,523.174982 3170.09064,618.143311 3324.64843,734.243131 Z" id="Path_1168"></path>
        </g>
    </g>
</svg>